<svg width="16" height="16" viewBox="0 0 16 16" fill="none" xmlns="http://www.w3.org/2000/svg">
<g clip-path="url(#clip0_10_2)">
<path d="M8 0C3.5 0 -0.0999954 3.7 4.5714e-06 8.2C0.100005 12.5 3.6 16 8 16C12.4 16 16 12.4 16 8C16 3.5 12.4 0 8 0ZM8 15.2C4 15.2 0.800005 12 0.800005 8C0.800005 4 4 0.8 8 0.8C11.9 0.8 15.2 4 15.2 7.9C15.2 11.9 12 15.2 8 15.2Z" fill="white"/>
<path d="M5.60001 12C6.40001 11.2 7.20001 10.4 8.00001 9.6C8.80001 10.4 9.60001 11.2 10.4 12C10.4 9.3 10.4 6.7 10.4 4C8.80001 4 7.20001 4 5.60001 4C5.60001 6.7 5.60001 9.3 5.60001 12Z" fill="white"/>
</g>
<defs>
<clipPath id="clip0_10_2">
<rect width="16" height="16" fill="white"/>
</clipPath>
</defs>
</svg>
