<svg width="16" height="16" viewBox="0 0 16 16" fill="none" xmlns="http://www.w3.org/2000/svg">
<g clip-path="url(#clip0_10_13)">
<path d="M8 0C12.4 0 15.9 3.5 16 7.9C16.1 12.4 12.5 16 8.1 16C3.6 16 0.0999972 12.4 -2.8389e-06 8.1C-0.100003 3.6 3.6 0 8 0ZM0.799997 8C0.799997 12 4 15.2 8 15.2C12 15.2 15.2 12 15.2 8C15.2 4 11.9 0.8 8 0.8C4 0.8 0.799997 4 0.799997 8Z" fill="white"/>
<path d="M11.2 4C11.2 6.7 11.2 9.3 11.2 12C9.1 12 6.9 12 4.8 12C4.8 12 4.8 12 4.8 11.9C4.8 10.1 4.8 8.3 4.8 6.5C4.8 5.7 4.8 4.9 4.8 4.1C4.8 4 4.8 4 4.9 4C6.2 4 7.6 4 9 4C9.7 4 10.4 4 11.2 4ZM9.6 5.6C8.5 5.6 7.5 5.6 6.4 5.6C6.4 5.6 6.4 5.6 6.4 5.7C6.4 6.2 6.4 6.7 6.4 7.2C6.4 7.3 6.4 7.3 6.5 7.3C7.5 7.3 8.5 7.3 9.6 7.3C9.6 7.3 9.7 7.3 9.7 7.2C9.6 6.6 9.6 6.2 9.6 5.6ZM6.4 8.8C7.5 8.8 8.5 8.8 9.5 8.8C9.6 8.8 9.6 8.8 9.6 8.7C9.6 8.5 9.6 8.3 9.6 8C9.6 8 9.6 8 9.6 7.9C8.5 8 7.5 8 6.4 8C6.4 8.3 6.4 8.5 6.4 8.8ZM8.8 10.4C8.8 10.1 8.8 9.9 8.8 9.7C8.8 9.6 8.8 9.6 8.7 9.6C8.2 9.6 7.7 9.6 7.2 9.6C6.9 9.6 6.7 9.6 6.4 9.6C6.4 9.6 6.4 9.6 6.3 9.6C6.3 9.9 6.3 10.1 6.3 10.4C7.2 10.4 8 10.4 8.8 10.4Z" fill="white"/>
</g>
<defs>
<clipPath id="clip0_10_13">
<rect width="16" height="16" fill="white"/>
</clipPath>
</defs>
</svg>
