<svg width="12" height="12" viewBox="0 0 12 12" fill="none" xmlns="http://www.w3.org/2000/svg">
<g clip-path="url(#clip0_9_2)">
<path d="M12.0001 10.6431L8.80411 7.44711C9.46012 6.4548 9.7243 5.25424 9.54543 4.07821C9.36655 2.90219 8.75736 1.83447 7.83597 1.08209C6.91458 0.329703 5.74664 -0.0537484 4.55859 0.00607903C3.37054 0.0659065 2.24703 0.56475 1.40589 1.40589C0.56475 2.24703 0.0659065 3.37054 0.00607903 4.55859C-0.0537484 5.74664 0.329703 6.91458 1.08209 7.83597C1.83447 8.75736 2.90219 9.36655 4.07821 9.54543C5.25424 9.7243 6.4548 9.46012 7.44711 8.80411L10.6421 12.0001L12.0001 10.6431ZM1.36011 4.80011C1.35232 4.34349 1.43553 3.88989 1.60489 3.46577C1.77424 3.04165 2.02635 2.6555 2.34651 2.32984C2.66667 2.00417 3.04847 1.74551 3.46964 1.56895C3.89081 1.39239 4.34292 1.30146 4.79961 1.30146C5.25629 1.30146 5.7084 1.39239 6.12957 1.56895C6.55075 1.74551 6.93254 2.00417 7.2527 2.32984C7.57286 2.6555 7.82497 3.04165 7.99433 3.46577C8.16368 3.88989 8.24689 4.34349 8.23911 4.80011C8.22373 5.70216 7.85459 6.56207 7.21123 7.19455C6.56787 7.82703 5.70179 8.18146 4.79961 8.18146C3.89742 8.18146 3.03134 7.82703 2.38799 7.19455C1.74463 6.56207 1.37549 5.70216 1.36011 4.80011Z" fill="white"/>
</g>
<defs>
<clipPath id="clip0_9_2">
<rect width="12" height="12" fill="white"/>
</clipPath>
</defs>
</svg>
